<svg xmlns="http://www.w3.org/2000/svg" viewBox="0 0 148.15 23.21"><defs><style>.cls-1{fill:#c99d66;}.cls-2{fill:#575756;}</style></defs><g id="Layer_2" data-name="Layer 2"><g id="Layer_2-2" data-name="Layer 2"><path class="cls-1" d="M53.07,11.73,52.6,11,41.1,16.21,41,16.14,44.19,8.5,43.43,8l-5.54,6.14h-.06L35.37,0h-.89L32,14.13H32L26.42,8l-.76.46,3.15,7.64-.09.08L17.23,10.94l-.46.78,10,7.68v.06L0,21.85l0,.91H26.87v-.91H10.21l16.91-1.52h0a7.59,7.59,0,0,1,.49-1.41v-.08l-7-5.41,8.08,3.69h.12a8.09,8.09,0,0,1,1.05-1.06h0l-2.33-5.49,4,4.41h0a8.17,8.17,0,0,1,1.41-.5L34.93,2.76l2,11.75a7.85,7.85,0,0,1,1.41.49h0l4-4.43-2.26,5.49h0a8.4,8.4,0,0,1,1.08,1.07h0l8.14-3.67"/><g id="Layer_1-2" data-name="Layer 1-2"><path class="cls-2" d="M32.3,23a3.29,3.29,0,0,1-.42-.21,3.88,3.88,0,0,1-.68-.53h0a3,3,0,0,1-.26-.34,3.14,3.14,0,0,1,3.75-4.7c.21.09.34.27.54.34.22-.36.47-.75.42,0-.06.14.18,1.87-.29,1.29-.67-1.5-2.15-2.07-3.26-.64A3.49,3.49,0,0,0,32,21.63a.76.76,0,0,1,.09.18c.24.32.62.46.89.75a2.1,2.1,0,0,0,1.64-.24c.15-.19.3-.39.46-.57.62-1.63.36.06.31.64,0,.32-.18.29-.27,0-.42.06-1,.59-1.5.65A3.74,3.74,0,0,1,32.3,23Z"/><path class="cls-2" d="M36.44,23a.16.16,0,0,1,.08-.13c.51-.11,1-.34,1-.92.24-.56.37-1.19.59-1.75a5,5,0,0,1,.46-1.29c.16-.42.33-.75.08-1.15.18-.1.46-.12.5-.36s0-.33.19-.31l.14.13c.27,1.18.75,2.34,1,3.52.34.65.16,1.93,1,2.12.16,0,.3.05.24.22-.82.06-1.66,0-2.5.06-.31-.47.75-.2.88-.47v-.18c-.05-.24-.15-.48-.2-.75a1.36,1.36,0,0,0-.24-.66c-.5,0-1,0-1.5.07-.08.5-.49,1.07-.31,1.55.29,0,1.22.28.5.42a3.84,3.84,0,0,0-.83,0C37.24,22.93,36.67,23.26,36.44,23Zm2-2.25c.35,0,1,.21,1.21-.06A14.46,14.46,0,0,0,39,18.69c-.3.23-.23.85-.41,1.19,0,.21-.27.67-.13.81Z"/><path class="cls-2" d="M44,23a4.46,4.46,0,0,1-.63.05.6.6,0,0,1-.59-.08c-.06-.3.39-.19.57-.23s.2-.14.26-.21c0-1.29,0-2.91-.08-4.17v-.46c-.06-.19.07-.48-.08-.65-.21,0-.81.06-.64-.3a11.8,11.8,0,0,1,1.88,0,2.76,2.76,0,0,1,2,.3,1.52,1.52,0,0,1,.21,2.12l0,0a1.42,1.42,0,0,1-.29.26c-.13.17-.49.15-.56.35a15.65,15.65,0,0,0,1.16,1.64C47.72,23.14,50,23,46.86,23c-.45-.63-.8-1.39-1.26-2-.93-1.58-1.25-1-1.12.46a.29.29,0,0,1,0,.13,3.14,3.14,0,0,0,0,.75.5.5,0,0,0,0,.34.86.86,0,0,0,.44.18c.14,0,.55,0,.42.22A3.19,3.19,0,0,1,44,23Zm.48-3.23c1.32.48,2.39-1.78,1.07-2.56C43.65,16.58,44.65,18.76,44.48,19.81Z"/><path class="cls-2" d="M50.46,23a4.46,4.46,0,0,1-.63.05.6.6,0,0,1-.59-.08c-.07-.3.39-.19.57-.23s.2-.14.26-.21c0-1.29,0-2.91-.09-4.17v-.46c-.06-.19.09-.48-.06-.65-.22,0-.82.06-.65-.3a11.8,11.8,0,0,1,1.88,0,2.76,2.76,0,0,1,2,.3,1.51,1.51,0,0,1,.2,2.12l0,0a1.37,1.37,0,0,1-.28.26c-.13.17-.49.15-.56.35a15.56,15.56,0,0,0,1.15,1.64c.57,1.45,2.88,1.33-.28,1.32-.45-.63-.81-1.39-1.27-2-.93-1.58-1.24-1-1.11.46a.28.28,0,0,0,0,.13,2.36,2.36,0,0,0,0,.75.5.5,0,0,0,0,.34.83.83,0,0,0,.43.18c.15,0,.55,0,.43.22A3.21,3.21,0,0,1,50.46,23Zm.48-3.23c1.32.48,2.39-1.78,1.07-2.56C50.14,16.58,51.11,18.76,50.94,19.81Z"/><path class="cls-2" d="M56,21.18c-.08-.76,1.55-.15,2-.32.15,0,.1.27.11.38,0,.27-.08.42-.39.36S55.85,21.9,56,21.18Z"/><path class="cls-2" d="M59.71,22.94c.09-.18.47-.11.65-.13.25-.22.06-.82.18-1.11-.17-1.4,0-2.84-.08-4.25-.07-.19-.48-.12-.62-.13C59,16.75,62,17.05,62.2,17c.58.3-.46.33-.64.3-.41.37-.08,1.12-.21,1.58a3.78,3.78,0,0,1,0,1l.13.06a.25.25,0,0,0,.2-.06A1.06,1.06,0,0,0,62,19.8h1.06c0,.05.3,0,.36,0,.54.09.87,0,.75-.61s.07-1.2-.06-1.79l0-.06c-1.61-.16-.68-.41.26-.36.31.22,1.7-.41,1.38.28h-.06a2.17,2.17,0,0,0-.51,0c-.25.51,0,1.21-.09,1.75,0,1.14-.09,2.26,0,3.43,0,.35.18.39.47.32s.45.32,0,.28c-.17-.08-3.08.12-2.14-.25.69,0,.75,0,.81-.68,0-.17-.09-.37,0-.53-.11-1.4.46-1.5-1.2-1.39H61.47c-.27.17-.11.66-.16.93a14.06,14.06,0,0,0,0,1.59c-.1.18.24.09.33.11.25-.07,1,.1.4.25-.44,0-.88,0-1.31,0a3.57,3.57,0,0,1-1,.06A.19.19,0,0,1,59.71,22.94Z"/><path class="cls-2" d="M66.47,23a.16.16,0,0,1,.07-.13c.51-.11,1-.32,1-.89.22-.57.39-1.2.6-1.78a4.63,4.63,0,0,1,.46-1.29c.16-.42.33-.75.08-1.15.17-.1.45-.12.5-.36s0-.33.19-.31a1.59,1.59,0,0,1,.13.13c.27,1.18.75,2.34,1,3.52.34.65.15,1.93,1,2.12.16,0,.29.05.24.22-.82.06-1.67,0-2.51.06-.3-.47.75-.2.89-.47v-.18a7.42,7.42,0,0,1-.2-.75,1.29,1.29,0,0,0-.24-.66c-.51,0-1,0-1.51.07-.08.5-.49,1.07-.3,1.55.28,0,1.21.28.49.42a3.84,3.84,0,0,0-.83,0C67.22,22.93,66.67,23.26,66.47,23Zm2-2.25c.35,0,1,.21,1.21-.06A14.5,14.5,0,0,0,69,18.69c-.34.35-.31,1.08-.5,1.55,0,.13-.22.34-.07.45Z"/><path class="cls-2" d="M74,23a4.46,4.46,0,0,1-.63.05A.58.58,0,0,1,72.8,23c-.08-.3.39-.19.57-.23s.19-.14.25-.21c0-1.29,0-2.91-.08-4.17v-.46c-.06-.19.07-.48-.08-.65-.21,0-.81.06-.64-.3a11.8,11.8,0,0,1,1.88,0,2.76,2.76,0,0,1,2,.3,1.51,1.51,0,0,1,.2,2.12l0,0a1.37,1.37,0,0,1-.28.26c-.13.17-.49.15-.57.35a17.38,17.38,0,0,0,1.17,1.64C77.73,23.14,80,23,76.87,23c-.45-.63-.81-1.39-1.26-2-.93-1.58-1.24-1-1.12.46a.5.5,0,0,1,0,.13,3.14,3.14,0,0,0,0,.75.5.5,0,0,0,0,.34.86.86,0,0,0,.44.18c.14,0,.55,0,.42.22A3.22,3.22,0,0,1,74,23Zm.48-3.23c1.32.48,2.4-1.78,1.07-2.56C73.68,16.58,74.67,18.76,74.49,19.81Z"/><path class="cls-2" d="M81.8,23c-.42,0-.93.06-1.35.05-.43-.49.58-.27.79-.37.29-.51.06-1.92.08-2.56,0-.88-.08-1.72-.06-2.6-.07-.22-.45-.11-.63-.15a3,3,0,0,0-1,.17.45.45,0,0,0-.32.26.47.47,0,0,0,0,.1c-.6,1-.5,0-.29-.51.12-.23,0-.75.31-.75a1.14,1.14,0,0,1,.15.23c.91.56,3.19.05,4.22.29.17-.06.35,0,.52-.06s.1-.36.31-.36.62,2.56,0,1.39c-.26-.75-1-.75-1.62-.75-.19,0-.59-.07-.63.17s-.09.21,0,.31c0,1.13,0,2.64.07,3.75a4.27,4.27,0,0,0,0,1c0,.25.57.1.68.14C83.67,23.29,82,23,81.8,23Z"/><path class="cls-2" d="M85.73,23c0-.1.09-.14.17-.19s.52.06.69-.15c0-.75-.1-2.17,0-2.88-.08-.51,0-1.18-.08-1.7.18-.75-.1-.87-.8-.86a.23.23,0,0,1,0-.18.47.47,0,0,1,.1-.1,3.14,3.14,0,0,0,.75,0c.27.17,2.52-.44,1.8.25-.19.06-1-.18-.9.27.06,1.7.12,3.39.12,5.09,0,.32.42.2.63.2H90a3.18,3.18,0,0,0,1.08-1.5c.44.2,0,1,0,1.36,0,.58-.44.44-.83.4a8.64,8.64,0,0,1-1.61,0H86.55C86.36,23,85.81,23.3,85.73,23Z"/><path class="cls-2" d="M92.31,23c.09-.35.61,0,.75-.31a11,11,0,0,0,.07-1.72c0-.69.06-1.5,0-2.25a5.62,5.62,0,0,0,0-1.16c0-.38-.4-.26-.64-.35-1.06-.39.75-.35,1.06-.24h0c.07,0,.15,0,.21,0h2a4.35,4.35,0,0,1,1.14,0c0,.41.1,2.25-.39.95-.32-.85-1.11-.63-1.86-.7-.22.09-.54-.1-.64.19a2.66,2.66,0,0,0,0,.69c.07.16-.22,1.84.21,1.81s1.13.14,1.42-.23c0-.28,0-1.44.42-.75-.15.35.45,3-.35,2.13.08-1.18-.28-.81-1.16-.82-.6-.06-.56.09-.55.62s0,1.27,0,1.82c.25.37.92.12,1.32.18a7.22,7.22,0,0,0,.93,0c.38.13.55-.36.75-.6,1-1.79.47-.24.47.56.14.43-.75.17-.9.25-1.38.19-2.8-.1-4.19.09A.2.2,0,0,1,92.31,23Z"/><path class="cls-2" d="M100,23c0-.24.27-.27.44-.17.66,0,.44-.75.44-1.18a4.25,4.25,0,0,0-.06-.87.64.64,0,0,0,0-.54A24.56,24.56,0,0,0,99,17.53c-.23-.24-1.12-.5-.25-.59.39,0,.82.14,1.2,0a2.64,2.64,0,0,1,.62,0c.14.26-.53.17-.42.49s.28.51.52.69v.09a5.5,5.5,0,0,0,.34.5c.21.2.3.79.66.75a5.9,5.9,0,0,0,.95-2c-.12-.31-1.23-.13-.75-.54a15.1,15.1,0,0,0,2.33,0c.3.38-.37.3-.57.41a5.08,5.08,0,0,0-1.27,1.57c-.15.31-.53.46-.51.81a21.46,21.46,0,0,0,0,3c.68-.08,1.16.51.19.33C101.46,22.93,100.34,23.36,100,23Z"/><path class="cls-2" d="M109.63,23c-.17-.06-.43-.06-.54-.19-.75-.14-.33-.9-.32-1.44.14-1.14.35,0,.35.45a2.1,2.1,0,0,0,.29.53.77.77,0,0,0,.07.16c1.07,1.06,3-.36,2-1.61-.59-.68-1.6-.65-2.32-1.25h0a1.7,1.7,0,0,1,0-2.29.76.76,0,0,1,.36-.37h0l.11-.07a3.76,3.76,0,0,1,1.11-.07c.4,0,.75.56,1.1.48.09-.49.47-.63.29,0-.17.33.19,1.6-.32,1.41-.23-1-.84-2-1.93-1.5-1.15.88-.22,1.85.84,2.14,1.33.27,2.34,1.9,1.34,3-.07.19-.28.24-.39.39A2.91,2.91,0,0,1,109.63,23Z"/><path class="cls-2" d="M113.58,23a.17.17,0,0,1,.07-.13c.54-.1,1.07-.34,1.07-.94.24-.57.39-1.22.6-1.79a5,5,0,0,1,.48-1.31c.16-.45.33-.75.08-1.2.18-.1.46-.12.53-.36s0-.34.2-.31a.74.74,0,0,1,.13.12c.29,1.22.75,2.4,1.08,3.61.34.67.15,2,1,2.17.15,0,.3.05.24.23-.84.06-1.71,0-2.56.05-.32-.46.75-.19.91-.48v-.19c-.06-.24-.17-.5-.21-.75A1.48,1.48,0,0,0,117,21a11.64,11.64,0,0,0-1.56.07c-.08.51-.5,1.08-.3,1.61a2.88,2.88,0,0,1,.75.16c.11.17,0,.3-.22.27a4,4,0,0,0-.85,0C114.42,23,113.83,23.29,113.58,23Zm2-2.31c.31,0,1.39.31,1.2-.23a16.83,16.83,0,0,0-.64-1.85c-.32.24-.24.87-.42,1.22-.07.2-.07.42-.14.6S115.55,20.63,115.63,20.66Z"/><path class="cls-2" d="M120.36,23c0-.11.12-.1.17-.16a4.7,4.7,0,0,1,.75,0c.24-.31,0-.75.11-1.14V17.35c-.11-.37-.81-.06-.9-.42.82-.18,2.87.06,3.79,0a2,2,0,0,1,1,.05c-.08.7.3,2.5-.54.81v-.07a1,1,0,0,0-1.11-.55c-.41.06-1.45-.28-1.26.48a14.09,14.09,0,0,0,0,2.25,4.78,4.78,0,0,0,.75-.08c.22,0,.53.07.75-.12s0-.87.14-1,.34.08.29.28,0,.66,0,.91c-.08.41.34,1.17-.12,1.38-.27,0-.18-.4-.17-.6,0-.75-1.07-.41-1.55-.53,0,0-.08,0-.08.06h0v1.22a10.14,10.14,0,0,0,0,1.35,2.44,2.44,0,0,0,.54,0c.12.13.27-.08.41,0,.36.33-.17.43-.44.38a11.45,11.45,0,0,0-2.19,0C120.52,23.13,120.35,23.1,120.36,23Z"/><path class="cls-2" d="M126,23a.18.18,0,0,1,.08-.13c.53-.11,1-.33,1.06-.91.23-.59.39-1.23.61-1.82a5,5,0,0,1,.48-1.31c.15-.45.33-.75.07-1.2.19-.1.47-.12.53-.36s.05-.34.2-.31l.13.12c.28,1.22.76,2.4,1.07,3.61.35.67.17,2,1,2.17.16,0,.29.05.24.23-.83.06-1.71,0-2.56.05-.32-.46.75-.19.91-.48v-.19c-.07-.24-.16-.5-.22-.75a1.36,1.36,0,0,0-.24-.67,11.42,11.42,0,0,0-1.55.07c-.09.51-.51,1.08-.32,1.61a2.71,2.71,0,0,1,.75.16c.11.17,0,.3-.22.27a4.12,4.12,0,0,0-.86,0C126.77,23,126.19,23.29,126,23ZM128,20.66c.3,0,1.37.31,1.19-.23a19.32,19.32,0,0,0-.66-1.85c-.32.23-.23.87-.42,1.22-.08.2-.07.41-.14.6S127.91,20.63,128,20.66Z"/><path class="cls-2" d="M134.14,23.07c-.22.05-.44,0-.66.05a.62.62,0,0,1-.6-.08c-.06-.32.4-.21.59-.24s.2-.15.26-.21c0-1.32,0-3-.08-4.28v-.46c-.07-.18.07-.48-.08-.65-.21,0-.83.06-.66-.32a12.43,12.43,0,0,1,1.93,0,2.72,2.72,0,0,1,2,.32,1.56,1.56,0,0,1,.13,2.21,1.26,1.26,0,0,1-.24.22c-.12.19-.75.16-.53.47.4.54.75,1.14,1.15,1.68a2.86,2.86,0,0,0,.75,1c.16.19.59,0,.68.25-.37.37-1.19,0-1.71.11-.71-.88-2.71-5.26-2.44-1.58a.29.29,0,0,0,0,.13,3.14,3.14,0,0,0,0,.75.43.43,0,0,0,0,.35.9.9,0,0,0,.44.18c.15,0,.57,0,.44.23A3.39,3.39,0,0,1,134.14,23.07Zm.48-3.31c1.36.49,2.45-1.82,1.08-2.62C133.76,16.44,134.82,18.69,134.62,19.76Z"/><path class="cls-2" d="M140,23c0-.23.29-.16.45-.21.32.13.33-.16.31-.39V17.72c.18-.75-.5-.4-.91-.53-.2-.47.75-.3,1.08-.31H141a.54.54,0,0,0,.21-.05,7.74,7.74,0,0,0,1.07,0c.91.15,0,.36-.42.34,0,.84-.49,5.88.28,5.66.48-.07.84.35.14.23H141C140.63,23,140.17,23.28,140,23Z"/><path class="cls-2" d="M145.38,23c-.16-.06-.43-.06-.53-.19-.75-.14-.32-.9-.32-1.44.14-1.14.34,0,.34.45a2.1,2.1,0,0,0,.29.53l.08.16c1.07,1.06,3-.36,2-1.61-.59-.68-1.64-.65-2.33-1.25h0a1.72,1.72,0,0,1,0-2.29.78.78,0,0,1,.37-.37h0l.1-.07a3.82,3.82,0,0,1,1.12-.07c.41,0,.75.56,1.07.48.08-.49.46-.63.28,0-.16.33.2,1.6-.31,1.41-.23-1-.85-1.94-2-1.5-1.15.88-.22,1.85.85,2.13,1.32.28,2.34,1.9,1.34,3.05-.07.19-.28.24-.39.39A2.94,2.94,0,0,1,145.38,23Z"/></g></g></g></svg>